<?xml version="1.0" encoding="UTF-8" standalone="no"?>
<svg xmlns:rdf="http://www.w3.org/1999/02/22-rdf-syntax-ns#" xmlns="http://www.w3.org/2000/svg" height="50mm" width="50mm" version="1.1" xmlns:cc="http://creativecommons.org/ns#" xmlns:dc="http://purl.org/dc/elements/1.1/" viewBox="0 0 177.16536 177.16536">
<g transform="matrix(.97559 0 0 .98151 2.1046 -856.79)" stroke="#000">
<ellipse rx="6.2301" ry="98.248" transform="matrix(.70657 -.70764 .70657 .70764 0 0)" cy="744.01" cx="-591.76" stroke-width="2.0438"/>
<ellipse rx="4.2484" ry="125.01" transform="matrix(.70704 .70717 -.70704 .70717 0 0)" cy="618.86" cx="744.1" stroke-width="2.0438"/>
<path stroke-linejoin="round" d="m9.6914 33.445c-0.95321-0.0796-1.6691 0.1023-2.125 0.56055-4.8597 4.8879 21.647 39.485 59.205 77.273 9.2732 9.3225 5.9257 6.4707 14.904 14.54 24.111 25.699 50.301 21.687 33.01 0.86651-10.34-12.46-16.488-19.22-30.305-33.122v-0.0039c-34.036-34.236-65.469-59.349-74.684-60.119zm114.4 106.74c0.0926 11.406-13.696 9.925-20.788 5.8082 16.707 15.256 34.962 14.63 20.788-5.8082zm9.7522 11.663c6.8343 8.8294 3.3966 19.443-11.761 9.9318 12.373 9.2283 20.338 11.83 22.477 9.7123 1.3104-1.6003-4.1012-11.111-10.716-19.644z" transform="matrix(1.025 0 0 1.0188 -2.1572 872.92)" stroke-width="2"/>
</g>
</svg>
