<?xml version="1.0" encoding="utf-8"?>
<!-- Generator: Adobe Illustrator 18.0.0, SVG Export Plug-In . SVG Version: 6.00 Build 0)  -->
<!DOCTYPE svg PUBLIC "-//W3C//DTD SVG 1.1//EN" "http://www.w3.org/Graphics/SVG/1.1/DTD/svg11.dtd">
<svg version="1.1" id="Layer_1" xmlns="http://www.w3.org/2000/svg" xmlns:xlink="http://www.w3.org/1999/xlink" x="0px" y="0px"
	 viewBox="0 0 462.9 501.4" enable-background="new 0 0 462.9 501.4" xml:space="preserve">
<path fill="#010101" d="M426.9,199.6h-198l0.4,34H246h162.7c-0.5,3.3-1.1,6.6-1.7,9.9c-6.1,33-15.3,62.2-27.7,87.6H79.4
	c-12.3-25.4-21.6-54.6-27.7-87.6C39.3,176.1,44,111.5,47.2,83.7C67.7,90.5,88.3,94,108.6,94c60.7,0,103.3-30.2,120.8-45.1
	C246.7,63.8,289.4,94,350.1,94h0c20.3,0,40.9-3.5,61.4-10.3c1.6,13.9,3.5,37.1,3.6,65.1h23.7c0-47.4-5.5-81.1-5.8-83.3l-2.4-14.6
	l-13.7,5.6c-22.4,9.2-44.8,13.8-66.7,13.8c0,0,0,0,0,0c-68.3,0-111.7-45.3-112.1-45.7l-8.6-9.2l-8.7,9.2
	c-0.4,0.5-43.8,45.7-112.1,45.7c-21.9,0-44.4-4.6-66.7-13.8l-13.7-5.6l-2.4,14.6c-0.6,3.6-14.4,88.7,2.6,181.6
	C38.5,302.4,57.5,348.8,84.8,385c34.6,45.8,82.4,75.3,142.1,87.7l2.4,0.5l2.4-0.5c59.7-12.3,107.5-41.8,142.1-87.7
	c27.4-36.3,46.4-82.7,56.5-137.9c3-16.2,5-32.2,6.3-47.5L426.9,199.6L426.9,199.6z"/>
</svg>
